# xmcd
#
# Track frame offsets:
#	150
#	12961
#	29171
#	41075
#
# Disc length: 766 seconds
#
# Revision: 0
# Processed by: cddbd v1.5.2PL0 Copyright (c) Steve Scherf et al.
# Submitted via: dBpowerAMP V4.0
#
DISCID=2f02fc04
DTITLE=The Hermit Crabs - Feel Good Factor EP
DYEAR=2006
DGENRE=Indie Pop
TTITLE0=Feel Good Factor
TTITLE1=China Girl
TTITLE2=Vegan Vows
TTITLE3=I Spend My Time
EXTD=
EXTT0=
EXTT1=
EXTT2=
EXTT3=
PLAYORDER=
